<svg xmlns="http://www.w3.org/2000/svg" width="1280" height="720" viewBox="0 0 1280 720" role="img" aria-label="Admission Prep Course">
  <defs>
    <linearGradient id="bg3" x1="0" y1="0" x2="1" y2="1">
      <stop offset="0%" stop-color="#115455"/>
      <stop offset="100%" stop-color="#0f6465"/>
    </linearGradient>
  </defs>
  <rect width="1280" height="720" rx="32" fill="url(#bg3)"/>
  <circle cx="1126" cy="96" r="154" fill="#2a8f8f" opacity="0.3"/>
  <circle cx="96" cy="658" r="172" fill="#2a8f8f" opacity="0.3"/>

  <rect x="96" y="76" width="386" height="54" rx="12" fill="#15dfc1"/>
  <text x="144" y="109" font-size="34" fill="#044548" font-family="Verdana" font-weight="700">Course Intro</text>

  <text x="430" y="142" font-size="86" fill="#f4fffd" font-family="Verdana" font-weight="700">Admission</text>
  <text x="532" y="222" font-size="58" fill="#15dfc1" font-family="Verdana" font-weight="700">Preparation</text>

  <rect x="132" y="266" width="560" height="306" rx="18" fill="#0a4f4e"/>
  <rect x="144" y="278" width="536" height="282" rx="14" fill="#0c4242"/>
  <line x1="170" y1="356" x2="650" y2="356" stroke="#58a8a7" opacity="0.35"/>
  <line x1="170" y1="474" x2="650" y2="474" stroke="#58a8a7" opacity="0.35"/>
  <text x="172" y="332" font-size="46" fill="#7acac7" font-family="Verdana">DU | RUET | CUET</text>
  <text x="172" y="430" font-size="44" fill="#7acac7" font-family="Verdana">Medical + Engineering</text>
  <text x="172" y="525" font-size="48" fill="#15dfc1" font-family="Verdana" font-weight="700">Dream University Path</text>

  <rect x="892" y="254" width="208" height="206" rx="72" fill="#f1c39a"/>
  <rect x="862" y="458" width="262" height="190" rx="22" fill="#0f7b7c"/>
  <rect x="920" y="214" width="142" height="88" rx="44" fill="#4d291e"/>
  <rect x="910" y="648" width="44" height="62" rx="10" fill="#173a39"/>
  <rect x="1030" y="648" width="44" height="62" rx="10" fill="#173a39"/>

  <rect x="92" y="620" width="252" height="56" rx="28" fill="#15dfc1"/>
  <rect x="368" y="620" width="252" height="56" rx="28" fill="#3f7e7e"/>
  <rect x="644" y="620" width="252" height="56" rx="28" fill="#3f7e7e"/>
  <rect x="920" y="620" width="252" height="56" rx="28" fill="#3f7e7e"/>
</svg>
