<svg xmlns="http://www.w3.org/2000/svg" width="1280" height="720" viewBox="0 0 1280 720" role="img" aria-label="SSC Prep Course">
  <defs>
    <linearGradient id="bg" x1="0" y1="0" x2="1" y2="1">
      <stop offset="0%" stop-color="#1f3f7a"/>
      <stop offset="100%" stop-color="#274f94"/>
    </linearGradient>
  </defs>
  <rect width="1280" height="720" rx="32" fill="url(#bg)"/>
  <circle cx="1160" cy="90" r="150" fill="#5b7fc2" opacity="0.35"/>
  <circle cx="88" cy="660" r="170" fill="#5b7fc2" opacity="0.35"/>

  <rect x="70" y="70" width="380" height="56" rx="12" fill="#f2ad2a"/>
  <text x="118" y="106" font-size="36" fill="#09203e" font-family="Verdana" font-weight="700">Course Intro</text>

  <text x="572" y="150" font-size="88" fill="#ffffff" font-family="Verdana" font-weight="700">SSC</text>
  <text x="560" y="236" font-size="64" fill="#f2ad2a" font-family="Verdana" font-weight="700">Preparation</text>

  <rect x="122" y="282" width="588" height="300" rx="18" fill="#1f6a3a"/>
  <rect x="132" y="292" width="568" height="280" rx="14" fill="#205f34"/>
  <line x1="160" y1="365" x2="670" y2="365" stroke="#79b88f" opacity="0.35"/>
  <line x1="160" y1="472" x2="670" y2="472" stroke="#79b88f" opacity="0.35"/>
  <text x="165" y="335" font-size="46" fill="#9dd8ae" font-family="Verdana">a + b = c</text>
  <text x="165" y="430" font-size="40" fill="#9dd8ae" font-family="Verdana">f(x) + g(x)</text>
  <text x="165" y="525" font-size="46" fill="#f2ad2a" font-family="Verdana" font-weight="700">HSC to SSC Path</text>

  <rect x="895" y="260" width="210" height="210" rx="72" fill="#f1c49e"/>
  <rect x="870" y="470" width="262" height="178" rx="24" fill="#2f56a5"/>
  <rect x="934" y="205" width="130" height="82" rx="41" fill="#4b2f22"/>
  <rect x="913" y="648" width="46" height="62" rx="10" fill="#1f2448"/>
  <rect x="1038" y="648" width="46" height="62" rx="10" fill="#1f2448"/>
  <polygon points="1010,486 1038,560 1000,560" fill="#f2ad2a"/>

  <rect x="70" y="620" width="260" height="56" rx="28" fill="#f2ad2a"/>
  <rect x="355" y="620" width="260" height="56" rx="28" fill="#5a74a5"/>
  <rect x="640" y="620" width="260" height="56" rx="28" fill="#5a74a5"/>
  <rect x="925" y="620" width="260" height="56" rx="28" fill="#5a74a5"/>
</svg>
