<svg xmlns="http://www.w3.org/2000/svg" width="1200" height="760" viewBox="0 0 1200 760" fill="none">
  <rect width="1200" height="760" rx="28" fill="#F8FAFC"/>
  <rect x="28" y="28" width="1144" height="704" rx="24" fill="white"/>
  <rect x="28" y="28" width="1144" height="86" rx="24" fill="#2563EB"/>
  <circle cx="78" cy="71" r="16" fill="#93C5FD"/>
  <rect x="110" y="60" width="180" height="22" rx="11" fill="#DBEAFE"/>
  <rect x="964" y="56" width="170" height="30" rx="15" fill="#1D4ED8"/>

  <rect x="72" y="156" width="332" height="180" rx="18" fill="#EEF2FF"/>
  <rect x="96" y="184" width="160" height="18" rx="9" fill="#3730A3"/>
  <rect x="96" y="218" width="120" height="48" rx="12" fill="#4F46E5"/>
  <rect x="224" y="218" width="156" height="48" rx="12" fill="#C7D2FE"/>
  <rect x="96" y="282" width="284" height="14" rx="7" fill="#A5B4FC"/>

  <rect x="434" y="156" width="332" height="180" rx="18" fill="#ECFDF5"/>
  <rect x="458" y="184" width="160" height="18" rx="9" fill="#065F46"/>
  <rect x="458" y="218" width="76" height="74" rx="12" fill="#34D399"/>
  <rect x="544" y="238" width="76" height="54" rx="12" fill="#10B981"/>
  <rect x="630" y="206" width="76" height="86" rx="12" fill="#059669"/>
  <rect x="716" y="226" width="26" height="66" rx="8" fill="#6EE7B7"/>

  <rect x="796" y="156" width="332" height="180" rx="18" fill="#FFF7ED"/>
  <rect x="820" y="184" width="170" height="18" rx="9" fill="#9A3412"/>
  <rect x="820" y="220" width="284" height="16" rx="8" fill="#FDBA74"/>
  <rect x="820" y="248" width="220" height="16" rx="8" fill="#FED7AA"/>
  <rect x="820" y="276" width="250" height="16" rx="8" fill="#FDBA74"/>

  <rect x="72" y="368" width="1056" height="308" rx="18" fill="#F8FAFC"/>
  <rect x="96" y="396" width="220" height="18" rx="9" fill="#1E293B"/>

  <path d="M120 620 C190 570 240 520 300 548 C360 576 410 650 470 610 C530 570 570 500 640 532 C710 564 760 610 810 584 C860 558 900 486 960 516 C1020 546 1050 590 1090 560" stroke="#2563EB" stroke-width="8" stroke-linecap="round"/>
  <path d="M120 640 C190 610 250 590 310 604 C370 618 420 668 480 640 C540 612 590 560 650 568 C710 576 760 634 820 626 C880 618 930 556 980 564 C1030 572 1060 610 1090 602" stroke="#0EA5E9" stroke-width="8" stroke-linecap="round" opacity="0.75"/>

  <rect x="920" y="396" width="184" height="128" rx="14" fill="#DBEAFE"/>
  <rect x="944" y="422" width="108" height="14" rx="7" fill="#1D4ED8"/>
  <rect x="944" y="446" width="136" height="14" rx="7" fill="#60A5FA"/>
  <rect x="944" y="470" width="90" height="14" rx="7" fill="#93C5FD"/>
</svg>
