<svg xmlns="http://www.w3.org/2000/svg" width="1200" height="760" viewBox="0 0 1200 760" fill="none">
  <defs>
    <linearGradient id="bg" x1="0" y1="0" x2="1200" y2="760" gradientUnits="userSpaceOnUse">
      <stop stop-color="#F8FAFC"/>
      <stop offset="1" stop-color="#EEF2FF"/>
    </linearGradient>
    <linearGradient id="topbar" x1="28" y1="28" x2="1172" y2="28" gradientUnits="userSpaceOnUse">
      <stop stop-color="#0F172A"/>
      <stop offset="1" stop-color="#1E293B"/>
    </linearGradient>
    <linearGradient id="accent" x1="72" y1="156" x2="1128" y2="384" gradientUnits="userSpaceOnUse">
      <stop stop-color="#14B8A6"/>
      <stop offset="1" stop-color="#2563EB"/>
    </linearGradient>
    <filter id="shadow" x="0" y="0" width="1200" height="760" filterUnits="userSpaceOnUse">
      <feDropShadow dx="0" dy="20" stdDeviation="24" flood-color="#0F172A" flood-opacity="0.14"/>
    </filter>
  </defs>
  <rect width="1200" height="760" rx="28" fill="url(#bg)"/>
  <g filter="url(#shadow)">
    <rect x="28" y="28" width="1144" height="704" rx="24" fill="#0B1220"/>
    <rect x="28" y="28" width="1144" height="86" rx="24" fill="url(#topbar)"/>

    <circle cx="78" cy="71" r="16" fill="#22C55E"/>
    <rect x="110" y="60" width="200" height="22" rx="11" fill="#E2E8F0" opacity="0.92"/>
    <rect x="948" y="56" width="186" height="30" rx="15" fill="#1E3A8A"/>
    <circle cx="1112" cy="71" r="18" fill="#E2E8F0" opacity="0.95"/>

    <rect x="48" y="136" width="150" height="560" rx="22" fill="#111827"/>
    <rect x="68" y="164" width="110" height="22" rx="11" fill="#3B82F6"/>
    <rect x="68" y="214" width="94" height="14" rx="7" fill="#334155"/>
    <rect x="68" y="252" width="104" height="14" rx="7" fill="#334155"/>
    <rect x="68" y="290" width="88" height="14" rx="7" fill="#334155"/>
    <rect x="68" y="328" width="112" height="14" rx="7" fill="#334155"/>
    <rect x="68" y="366" width="90" height="14" rx="7" fill="#334155"/>

    <rect x="216" y="144" width="936" height="72" rx="20" fill="#0F172A"/>
    <rect x="244" y="166" width="164" height="16" rx="8" fill="#E2E8F0"/>
    <rect x="1018" y="160" width="104" height="28" rx="14" fill="#F59E0B"/>
    <circle cx="1082" cy="178" r="8" fill="#FFF7ED"/>

    <rect x="216" y="236" width="936" height="150" rx="20" fill="#111827"/>
    <rect x="244" y="262" width="132" height="18" rx="9" fill="#60A5FA"/>
    <rect x="244" y="298" width="286" height="14" rx="7" fill="#1F2937"/>
    <rect x="244" y="324" width="208" height="14" rx="7" fill="#1F2937"/>
    <rect x="244" y="350" width="248" height="14" rx="7" fill="#1F2937"/>

    <rect x="538" y="260" width="282" height="106" rx="18" fill="#0F766E" opacity="0.92"/>
    <rect x="564" y="286" width="70" height="58" rx="12" fill="#5EEAD4"/>
    <rect x="644" y="274" width="70" height="70" rx="12" fill="#14B8A6"/>
    <rect x="724" y="292" width="70" height="52" rx="12" fill="#99F6E4"/>

    <rect x="836" y="260" width="292" height="106" rx="18" fill="#312E81" opacity="0.9"/>
    <rect x="862" y="286" width="168" height="14" rx="7" fill="#C7D2FE"/>
    <path d="M862 340 L904 298 L954 322 L1002 280 L1070 312 L1104 274" stroke="#818CF8" stroke-width="8" stroke-linecap="round" stroke-linejoin="round"/>

    <rect x="216" y="404" width="936" height="276" rx="20" fill="#0F172A"/>
    <rect x="244" y="430" width="224" height="18" rx="9" fill="#E2E8F0"/>

    <rect x="244" y="470" width="362" height="186" rx="18" fill="#111827"/>
    <rect x="270" y="496" width="160" height="14" rx="7" fill="#22C55E"/>
    <rect x="270" y="528" width="250" height="12" rx="6" fill="#334155"/>
    <rect x="270" y="554" width="198" height="12" rx="6" fill="#334155"/>
    <rect x="270" y="580" width="232" height="12" rx="6" fill="#334155"/>

    <rect x="626" y="470" width="232" height="186" rx="18" fill="#111827"/>
    <rect x="650" y="496" width="152" height="14" rx="7" fill="#A78BFA"/>
    <rect x="650" y="528" width="180" height="16" rx="8" fill="#374151"/>
    <path d="M650 628 L694 582 L736 604 L776 548 L826 572" stroke="#818CF8" stroke-width="8" stroke-linecap="round" stroke-linejoin="round"/>

    <rect x="874" y="470" width="278" height="186" rx="18" fill="#111827"/>
    <rect x="900" y="496" width="154" height="14" rx="7" fill="#34D399"/>
    <rect x="900" y="532" width="136" height="20" rx="10" fill="#16A34A"/>
    <rect x="900" y="566" width="162" height="20" rx="10" fill="#22C55E"/>
    <rect x="900" y="600" width="122" height="20" rx="10" fill="#86EFAC"/>
  </g>
</svg>
