<svg xmlns="http://www.w3.org/2000/svg" width="1200" height="760" viewBox="0 0 1200 760" fill="none">
  <rect width="1200" height="760" rx="28" fill="#F8FAFC"/>
  <rect x="28" y="28" width="1144" height="704" rx="24" fill="white"/>
  <rect x="28" y="28" width="1144" height="86" rx="24" fill="#0F766E"/>
  <circle cx="78" cy="71" r="16" fill="#99F6E4"/>
  <rect x="110" y="60" width="200" height="22" rx="11" fill="#CCFBF1"/>
  <rect x="944" y="56" width="190" height="30" rx="15" fill="#115E59"/>

  <rect x="72" y="156" width="460" height="228" rx="18" fill="#F0FDFA"/>
  <rect x="96" y="184" width="220" height="18" rx="9" fill="#134E4A"/>
  <rect x="96" y="220" width="406" height="16" rx="8" fill="#99F6E4"/>
  <rect x="96" y="248" width="356" height="16" rx="8" fill="#CCFBF1"/>
  <rect x="96" y="276" width="388" height="16" rx="8" fill="#99F6E4"/>
  <rect x="96" y="312" width="120" height="44" rx="10" fill="#14B8A6"/>
  <rect x="226" y="312" width="120" height="44" rx="10" fill="#5EEAD4"/>
  <rect x="356" y="312" width="146" height="44" rx="10" fill="#99F6E4"/>

  <rect x="562" y="156" width="566" height="228" rx="18" fill="#FFFBEB"/>
  <rect x="586" y="184" width="220" height="18" rx="9" fill="#78350F"/>
  <rect x="586" y="224" width="40" height="132" rx="10" fill="#F59E0B"/>
  <rect x="636" y="254" width="40" height="102" rx="10" fill="#FBBF24"/>
  <rect x="686" y="218" width="40" height="138" rx="10" fill="#F59E0B"/>
  <rect x="736" y="238" width="40" height="118" rx="10" fill="#FCD34D"/>
  <rect x="786" y="206" width="40" height="150" rx="10" fill="#D97706"/>
  <rect x="850" y="222" width="244" height="16" rx="8" fill="#FDE68A"/>
  <rect x="850" y="250" width="214" height="16" rx="8" fill="#FEF3C7"/>
  <rect x="850" y="278" width="228" height="16" rx="8" fill="#FDE68A"/>

  <rect x="72" y="416" width="1056" height="260" rx="18" fill="#F8FAFC"/>
  <rect x="96" y="444" width="280" height="18" rx="9" fill="#1E293B"/>

  <rect x="96" y="486" width="322" height="162" rx="14" fill="#ECFEFF"/>
  <rect x="120" y="512" width="172" height="14" rx="7" fill="#0E7490"/>
  <rect x="120" y="540" width="274" height="14" rx="7" fill="#67E8F9"/>
  <rect x="120" y="566" width="238" height="14" rx="7" fill="#A5F3FC"/>

  <rect x="448" y="486" width="322" height="162" rx="14" fill="#EEF2FF"/>
  <rect x="472" y="512" width="154" height="14" rx="7" fill="#3730A3"/>
  <path d="M472 612 L520 560 L570 584 L624 532 L692 566 L746 520" stroke="#4F46E5" stroke-width="8" stroke-linecap="round" stroke-linejoin="round"/>

  <rect x="800" y="486" width="304" height="162" rx="14" fill="#F0FDF4"/>
  <rect x="824" y="512" width="168" height="14" rx="7" fill="#14532D"/>
  <rect x="824" y="542" width="220" height="18" rx="9" fill="#4ADE80"/>
  <rect x="824" y="572" width="176" height="18" rx="9" fill="#86EFAC"/>
  <rect x="824" y="602" width="196" height="18" rx="9" fill="#BBF7D0"/>
</svg>
